# xmcd
#
# Track frame offsets:
#	150
#	14389
#	31540
#	52252
#	72643
#	86628
#	102928
#	115256
#	131884
#	148196
#	161470
#	171599
#
# Disc length: 2524 seconds
# Revision: 0
# Processed by: cddbd v1.5.2PL0 Copyright (c) Steve Scherf et al.
# Submitted via: dBpowerAMP V12.0
#
DISCID=af09da0c
DTITLE=Noam Pikelny - Noam Pikelny plays Kenny Baker plays Bill Monroe
DYEAR=2013
DGENRE=Country
TTITLE0=Road to Columbus
TTITLE1=Brown County Breakdown
TTITLE2=Lonesome Moonlight Waltz
TTITLE3=Jerusalem Ridge
TTITLE4=Monroe's Hornpipe
TTITLE5=Cheyenne
TTITLE6=Big Sandy River
TTITLE7=Stoney Lonesome
TTITLE8=Mississippi Waltz
TTITLE9=Wheel Hoss
TTITLE10=Fiddler's Pastime
TTITLE11=Ashland Breakdown
EXTD=
EXTT0=
EXTT1=
EXTT2=
EXTT3=
EXTT4=
EXTT5=
EXTT6=
EXTT7=
EXTT8=
EXTT9=
EXTT10=
EXTT11=
PLAYORDER=
